<?xml version="1.0" encoding="iso-8859-1"?>
<!-- Generator: Adobe Illustrator 19.0.0, SVG Export Plug-In . SVG Version: 6.00 Build 0)  -->
<svg xmlns="http://www.w3.org/2000/svg" xmlns:xlink="http://www.w3.org/1999/xlink" version="1.1" id="Capa_1" x="0px" y="0px" viewBox="0 0 406.016 406.016" style="enable-background:new 0 0 406.016 406.016;" xml:space="preserve" width="512px" height="512px">
<g>
	<g>
		<path d="M374.016,259.072c4.608-17.408,7.168-64.512,7.168-81.408C380.672,79.872,300.8,0,203.008,0S24.832,79.872,24.832,178.176    c0,16.896,2.56,64,7.168,81.408c-1.536,1.536-3.072,3.072-4.096,5.632c-2.048,4.096-3.072,9.216-2.048,14.848l14.336,93.696    c1.024,5.12,3.072,9.728,6.656,13.312c3.072,3.072,7.168,4.608,11.264,4.608c0.512,0,1.536,0,2.048,0l10.752-1.536    c1.536,4.608,4.096,8.704,8.192,11.264c4.096,3.072,8.704,4.608,13.312,4.608c1.024,0,2.56,0,3.584-0.512l30.72-4.608    c6.144-1.024,11.264-4.096,14.848-9.216c3.584-5.12,5.12-10.752,4.096-16.896L124.16,237.568    c-1.024-6.144-4.096-11.264-9.216-14.848c-5.12-3.584-10.752-5.12-16.896-4.096l-30.72,4.608    c-6.144,1.024-11.264,4.096-14.848,9.216c-3.584,5.12-5.12,10.752-4.096,16.896l1.024,5.12L42.24,256    c-4.096-15.872-6.656-59.392-6.656-77.824C35.072,85.504,110.336,10.24,203.008,10.24s167.424,75.264,167.424,167.424    c0,18.432-2.56,61.952-6.656,77.824l-7.168-1.024l1.024-5.12c1.024-6.144-0.512-11.776-4.096-16.896s-8.704-8.192-14.848-9.216    l-30.72-4.608c-6.144-1.024-11.776,0.512-16.896,4.096c-5.12,3.584-8.192,8.704-9.216,14.848l-21.504,137.216    c-1.024,6.144,0.512,11.776,4.096,16.896s8.704,8.192,14.848,9.216l30.72,4.608c1.024,0,2.56,0.512,3.584,0.512    c4.608,0,9.216-1.536,13.312-4.608c4.096-3.072,6.656-6.656,8.192-11.264l10.752,1.536c0.512,0,1.536,0,2.048,0    c8.704,0,16.384-7.68,17.92-17.92l14.848-94.208c1.024-5.12,0-10.24-2.048-14.848C377.6,262.656,376.064,260.608,374.016,259.072z     M68.864,233.984l30.72-4.608c0.512,0,1.536,0,2.048,0c2.56,0,5.12,1.024,7.168,2.56c2.56,2.048,4.608,5.12,5.12,8.192    l21.504,137.216c0.512,3.072-0.512,6.656-2.048,9.216c-2.048,2.56-5.12,4.608-8.192,5.12l-30.72,4.608    c-3.072,0.512-6.656-0.512-9.216-2.048c-2.56-2.048-4.608-5.12-5.12-8.192L58.624,248.832    C57.6,241.152,62.208,235.008,68.864,233.984z M36.608,269.312c0.512-1.024,2.048-3.072,4.096-3.072l10.24-1.536l17.92,115.2    l-10.24,1.536c-2.048,0.512-3.584-1.024-4.608-2.048c-2.048-1.536-3.072-4.608-3.584-7.68l-14.848-94.208    C35.072,274.432,35.584,271.36,36.608,269.312z M325.888,385.024c-0.512,3.072-2.048,6.144-5.12,8.192    c-2.56,2.048-6.144,2.56-9.216,2.048l-30.72-4.608c-3.072-0.512-6.144-2.048-8.192-5.12c-2.048-2.56-2.56-6.144-2.048-9.216    l21.504-137.216c0.512-3.072,2.048-6.144,5.12-8.192c2.048-1.536,4.608-2.56,7.168-2.56c0.512,0,1.536,0,2.048,0l30.72,4.608    c6.656,1.024,11.264,7.68,10.24,14.336L325.888,385.024z M370.432,278.016l-14.848,94.208c-1.024,5.632-4.608,9.728-8.192,9.216    l-10.24-1.536l17.92-115.2l10.24,1.536c2.048,0.512,3.072,2.048,4.096,3.072C370.432,271.872,370.944,274.944,370.432,278.016z" fill="#FFFFFF"/>
	</g>
</g>
<g>
</g>
<g>
</g>
<g>
</g>
<g>
</g>
<g>
</g>
<g>
</g>
<g>
</g>
<g>
</g>
<g>
</g>
<g>
</g>
<g>
</g>
<g>
</g>
<g>
</g>
<g>
</g>
<g>
</g>
</svg>
